<?xml version="1.0" encoding="UTF-8"?>
<svg width="30px" height="30px" viewBox="0 0 30 30" version="1.1" xmlns="http://www.w3.org/2000/svg" xmlns:xlink="http://www.w3.org/1999/xlink">
    <title>ic_pv_play</title>
    <g id="뉴뉴_프로그램" stroke="none" stroke-width="1" fill="none" fill-rule="evenodd">
        <g id="program_detail_final" transform="translate(-514.000000, -1177.000000)" fill="#112233" fill-rule="nonzero">
            <g id="프로그램_제공" transform="translate(144.000000, 1122.000000)">
                <g id="코치영상-copy-2" transform="translate(296.000000, 32.000000)">
                    <g id="ic_pv_play" transform="translate(74.000000, 23.000000)">
                        <path d="M22.7649928,14.4095122 C22.6915352,14.334878 22.5813486,14.1856098 22.4711621,14.0363415 C22.4344333,13.9990244 22.4344333,13.9990244 22.3977044,13.9617073 C22.2875179,13.8497561 22.1773314,13.775122 22.0304161,13.7004878 L16.5945481,10.5285366 C16.5945481,10.5285366 16.5578192,10.5285366 16.5578192,10.4912195 L11.0852224,7.28195122 C10.6077475,6.98341463 10.0568149,6.94609756 9.54261119,7.05804878 C9.02840746,7.20731707 8.58766141,7.54317073 8.2938307,8.02829268 C8.18364419,8.17756098 8.14691535,8.36414634 8.07345768,8.51341463 C8.03672884,8.62536585 8.03672884,8.77463415 8,8.92390244 C8,8.96121951 8,9.03585366 8,9.07317073 L8,15.5290244 L8,21.947561 C8,22.5073171 8.22037303,23.0297561 8.58766141,23.4029268 C8.95494978,23.7760976 9.46915352,24 10.0200861,24 C10.2037303,24 10.4241033,23.9626829 10.6077475,23.8880488 C10.7913917,23.8134146 10.9750359,23.7387805 11.1219512,23.6268293 L16.5210904,20.454878 L16.5945481,20.417561 L22.0304161,17.2456098 C22.0671449,17.2456098 22.0671449,17.2082927 22.1038737,17.2082927 C22.5446198,16.9097561 22.8751793,16.4619512 22.9853659,15.9768293 C23.1322812,15.4543902 23.0588235,14.8946341 22.7649928,14.4095122 Z M21.1856528,15.5663415 C21.1856528,15.6036585 21.148924,15.6409756 21.1121951,15.6409756 L21.0754663,15.6409756 L15.6763271,18.8502439 L15.6395983,18.887561 L10.2404591,22.0595122 C10.2037303,22.0595122 10.2037303,22.0968293 10.1670014,22.0968293 C10.1670014,22.0968293 10.1302726,22.0968293 10.1302726,22.1341463 L10.0935438,22.1341463 C10.0568149,22.1341463 10.0200861,22.0968293 9.98335725,22.0968293 C9.94662841,22.0595122 9.94662841,22.0221951 9.94662841,21.984878 L9.94662841,15.5290244 L9.94662841,9.1104878 L9.94662841,9.07317073 L9.94662841,9.03585366 C9.98335725,8.99853659 10.0200861,8.96121951 10.0568149,8.96121951 C10.0935438,8.96121951 10.1302726,8.96121951 10.1670014,8.96121951 L15.6028694,12.1331707 L15.6395983,12.1704878 L21.1121951,15.3797561 L21.148924,15.4170732 L21.1856528,15.4543902 C21.1856528,15.4917073 21.1856528,15.5290244 21.1856528,15.5663415 Z" id="Shape"></path>
                    </g>
                </g>
            </g>
        </g>
    </g>
</svg>