<svg height="511pt" viewBox="-42 1 511 511.99948" width="511pt" xmlns="http://www.w3.org/2000/svg"><path d="m143.535156 408.628906c-12.660156 10.324219-28.453125 26.929688-38.5625 51.035156-6.117187 14.609376-10.144531 31.96875-10.144531 52.335938h48.707031l21.972656-43.785156zm0 0" fill="#f4cda4"/><path d="m284.320312 408.628906c12.660157 10.324219 28.453126 26.929688 38.558594 51.035156 6.117188 14.609376 10.148438 31.96875 10.148438 52.335938h-48.707032l-21.976562-43.785156zm0 0" fill="#f4cda4"/><path d="m403.726562 156.070312-189.800781-25.410156-189.800781 25.410156c-8.777344 22.644532-13.597656 47.242188-13.597656 72.945313h406.800781c0-25.703125-4.824219-50.300781-13.601563-72.945313zm0 0" fill="#5c5766"/><path d="m279.539062 36.960938c-23.878906-9.726563-44.96875-24.777344-56.453124-33.800782-5.378907-4.214844-12.941407-4.214844-18.316407 0-11.488281 9.023438-32.574219 24.074219-56.457031 33.800782-38.175781 13.011718-71.277344 37.042968-95.445312 68.289062l161.058593 25.410156 161.058594-25.410156c-24.175781-31.246094-57.277344-55.277344-95.445313-68.289062zm0 0" fill="#5c5766"/><path d="m427.351562 229.015625c0 21.734375-17.621093 39.359375-39.359374 39.359375-21.738282 0-39.359376-17.625-39.359376-39.359375 0-21.738281 17.621094-39.363281 39.359376-39.363281 21.738281 0 39.359374 17.625 39.359374 39.363281zm0 0" fill="#f1bf94"/><path d="m284.320312 408.628906v103.371094h-140.785156v-103.371094c11.332032-9.230468 20.160156-13.410156 20.160156-13.410156h100.464844c-.003906 0 8.828125 4.179688 20.160156 13.410156zm0 0" fill="#f05e71"/><path d="m257.25 402.570312c0 23.929688-19.394531 43.324219-43.324219 43.324219-23.925781 0-43.324219-19.394531-43.324219-43.324219 0-23.925781 19.398438-43.324218 43.324219-43.324218 23.929688 0 43.324219 19.398437 43.324219 43.324218zm0 0" fill="#f1bf94"/><path d="m387.992188 228.609375c-.058594-25.097656-8.867188-49.480469-24.851563-68.832031-1.050781-1.269532-2.109375-2.5-3.167969-3.707032l-146.046875-25.410156-146.042969 25.410156c-1.0625 1.207032-2.117187 2.4375-3.167968 3.707032-15.984375 19.351562-24.796875 43.734375-24.855469 68.832031v.40625c0 95.851563 77.933594 173.554687 174.066406 173.554687 96.136719 0 174.066407-77.703124 174.066407-173.554687 0-.136719 0-.269531 0-.40625zm0 0" fill="#f4cda4"/><path d="m70.765625 229.015625c0-.136719 0-.269531 0-.40625.058594-25.097656 8.871094-49.480469 24.851563-68.832031 1.050781-1.269532 2.109374-2.5 3.171874-3.707032l130.589844-22.722656-15.453125-2.6875-146.042969 25.410156c-1.0625 1.207032-2.117187 2.4375-3.167968 3.707032-7.609375 9.210937-13.570313 19.574218-17.757813 30.597656-2.175781-.46875-4.53125-.722656-7.097656-.722656-21.738281 0-39.359375 17.625-39.359375 39.363281 0 21.734375 17.621094 39.359375 39.359375 39.359375 1.554687 0 3.023437-.101562 4.433594-.277344 17.78125 77.03125 86.976562 134.472656 169.632812 134.472656 5.210938 0 10.359375-.242187 15.453125-.6875-88.894531-7.800781-158.613281-82.207031-158.613281-172.867187zm0 0" fill="#f1bf94"/><path d="m307.863281 242.628906c-4.269531 0-7.726562-3.460937-7.726562-7.726562v-18.265625c0-4.265625 3.457031-7.726563 7.726562-7.726563 4.265625 0 7.722657 3.460938 7.722657 7.726563v18.265625c0 4.265625-3.457032 7.726562-7.722657 7.726562zm0 0" fill="#514e5b"/><path d="m320.300781 269.476562h-24.875c-4.269531 0-7.726562-3.460937-7.726562-7.726562 0-4.269531 3.457031-7.726562 7.726562-7.726562h24.875c4.265625 0 7.726563 3.457031 7.726563 7.726562 0 4.265625-3.460938 7.726562-7.726563 7.726562zm0 0" fill="#dc7c9f"/><path d="m119.992188 242.628906c-4.269532 0-7.726563-3.460937-7.726563-7.726562v-18.265625c0-4.265625 3.457031-7.726563 7.726563-7.726563 4.265624 0 7.726562 3.460938 7.726562 7.726563v18.265625c0 4.265625-3.460938 7.726562-7.726562 7.726562zm0 0" fill="#514e5b"/><path d="m132.429688 269.476562h-24.878907c-4.265625 0-7.726562-3.460937-7.726562-7.726562 0-4.269531 3.460937-7.726562 7.726562-7.726562h24.878907c4.265624 0 7.726562 3.457031 7.726562 7.726562 0 4.265625-3.460938 7.726562-7.726562 7.726562zm0 0" fill="#dc7c9f"/><path d="m213.925781 268.441406c-8.777343 0-17.019531-3.671875-22.617187-10.074218-2.808594-3.210938-2.480469-8.09375.730468-10.902344 3.214844-2.808594 8.09375-2.480469 10.902344.734375 2.664063 3.046875 6.667969 4.792969 10.984375 4.792969 4.320313 0 8.324219-1.746094 10.984375-4.792969 2.808594-3.214844 7.691406-3.539063 10.902344-.734375 3.214844 2.808594 3.539062 7.691406.734375 10.902344-5.597656 6.402343-13.84375 10.074218-22.621094 10.074218zm0 0" fill="#514e5b"/><path d="m403.726562 156.070312h-379.601562c7.117188-18.378906 16.84375-35.46875 28.742188-50.820312h322.117187c11.890625 15.351562 21.625 32.441406 28.742187 50.820312zm0 0" fill="#f05e71"/></svg>