<?xml version="1.0" encoding="UTF-8"?>
<svg width="84px" height="15px" viewBox="0 0 84 15" version="1.1" xmlns="http://www.w3.org/2000/svg" xmlns:xlink="http://www.w3.org/1999/xlink">
    <title>logo_keepfit_en</title>
    <g id="뉴뉴_메인" stroke="none" stroke-width="1" fill="none" fill-rule="evenodd">
        <g id="main_0" transform="translate(-250.000000, -63.000000)" fill="#343434">
            <g id="GNB" transform="translate(0.000000, 40.000000)">
                <g id="logo_keepfit_en" transform="translate(250.000000, 23.000000)">
                    <polygon id="Fill-11" points="0 14.9999847 0 3.56432418e-05 3.88059726 3.56432418e-05 3.88059726 7.18469479 8.84973041 3.56432418e-05 13.2272517 3.56432418e-05 7.90317281 7.40990916 13.6058426 14.9999847 8.94431127 14.9999847 3.88059726 7.65768061 3.88059726 14.9999847"></polygon>
                    <polygon id="Fill-13" points="15.1438463 1.5275675e-05 24.9636725 1.5275675e-05 24.9636725 2.92790391 19.0244435 2.92790391 19.0244435 5.94591902 24.6797694 5.94591902 24.6797694 8.87385857 19.0244435 8.87385857 19.0244435 12.0720248 25.0347151 12.0720248 25.0347151 14.9999644 15.1438463 14.9999644"></polygon>
                    <polygon id="Fill-15" points="27.7083471 1.5275675e-05 37.5282269 1.5275675e-05 37.5282269 2.92790391 31.5889444 2.92790391 31.5889444 5.94591902 37.2442703 5.94591902 37.2442703 8.87385857 31.5889444 8.87385857 31.5889444 12.0720248 37.599216 12.0720248 37.599216 14.9999644 27.7083471 14.9999644"></polygon>
                    <path d="M47.9393868,4.90990746 C47.9393868,3.52863001 46.9060052,2.83786399 44.8396166,2.83786399 L44.1534239,2.83786399 L44.1534239,7.09458359 L44.7922727,7.09458359 C45.8175228,7.09458359 46.5984034,6.89966597 47.134861,6.50901604 C47.670944,6.11877347 47.9393868,5.58560149 47.9393868,4.90990746 M51.6780592,4.8874013 C51.6780592,5.68341673 51.4964939,6.3963834 51.1337913,7.0270651 C50.7707142,7.65764497 50.270099,8.18694711 49.6312502,8.61486968 C48.9924013,9.04279226 48.2388572,9.36938619 47.3714736,9.59454964 C46.5037156,9.81981493 45.5650219,9.93239665 44.55566,9.93239665 L44.1534239,9.93239665 L44.1534239,15 L40.2727731,15 L40.2727731,0 L44.8159179,0 C45.8097659,0 46.7285056,0.0978661579 47.5726184,0.292783771 C48.4163033,0.488108736 49.1420831,0.784762344 49.7495297,1.18243908 C50.3566554,1.58047226 50.8298807,2.08721732 51.1693126,2.70267426 C51.5083166,3.31853856 51.6780592,4.04662815 51.6780592,4.8874013" id="Fill-17"></path>
                    <polygon id="Fill-19" points="53.4998322 14.9999847 53.4998322 3.56432418e-05 63.4143463 3.56432418e-05 63.4143463 2.92792427 57.3804295 2.92792427 57.3804295 6.32884964 63.1303897 6.32884964 63.1303897 9.25673827 57.3804295 9.25673827 57.3804295 14.9999847"></polygon>
                    <polygon id="Fill-21" points="65.7803284 15 69.6609791 15 69.6609791 5.09189166e-05 65.7803284 5.09189166e-05"></polygon>
                    <polygon id="Fill-23" points="84 1.5275675e-05 84 2.92790391 79.764457 2.92790391 79.764457 14.9999644 75.8838598 14.9999644 75.8838598 2.92790391 71.6482633 2.92790391 71.6482633 1.5275675e-05"></polygon>
                </g>
            </g>
        </g>
    </g>
</svg>